%TF.GenerationSoftware,KiCad,Pcbnew,(5.1.9-0-10_14)*%
%TF.CreationDate,2021-03-17T23:59:50+01:00*%
%TF.ProjectId,PogoDebug,506f676f-4465-4627-9567-2e6b69636164,rev?*%
%TF.SameCoordinates,Original*%
%TF.FileFunction,Copper,L2,Bot*%
%TF.FilePolarity,Positive*%
%FSLAX46Y46*%
G04 Gerber Fmt 4.6, Leading zero omitted, Abs format (unit mm)*
G04 Created by KiCad (PCBNEW (5.1.9-0-10_14)) date 2021-03-17 23:59:50*
%MOMM*%
%LPD*%
G01*
G04 APERTURE LIST*
%TA.AperFunction,ComponentPad*%
%ADD10O,1.700000X1.700000*%
%TD*%
%TA.AperFunction,ComponentPad*%
%ADD11R,1.700000X1.700000*%
%TD*%
%TA.AperFunction,ComponentPad*%
%ADD12O,1.800000X0.900000*%
%TD*%
%TA.AperFunction,NonConductor*%
%ADD13C,0.254000*%
%TD*%
%TA.AperFunction,NonConductor*%
%ADD14C,0.100000*%
%TD*%
G04 APERTURE END LIST*
D10*
%TO.P,J10,8*%
%TO.N,Net-(J10-Pad8)*%
X153135000Y-93345000D03*
%TO.P,J10,7*%
%TO.N,Net-(J10-Pad7)*%
X153135000Y-95885000D03*
%TO.P,J10,6*%
%TO.N,Net-(J10-Pad6)*%
X153135000Y-98425000D03*
%TO.P,J10,5*%
%TO.N,Net-(J10-Pad5)*%
X153135000Y-100965000D03*
%TO.P,J10,4*%
%TO.N,Net-(J10-Pad4)*%
X153135000Y-103505000D03*
%TO.P,J10,3*%
%TO.N,Net-(J10-Pad3)*%
X153135000Y-106045000D03*
%TO.P,J10,2*%
%TO.N,Net-(J10-Pad2)*%
X153135000Y-108585000D03*
D11*
%TO.P,J10,1*%
%TO.N,Net-(J1-Pad1)*%
X153135000Y-111125000D03*
%TD*%
D12*
%TO.P,J7,1*%
%TO.N,Net-(J10-Pad7)*%
X142875000Y-99060000D03*
%TD*%
%TO.P,J1,1*%
%TO.N,Net-(J1-Pad1)*%
X142875000Y-106680000D03*
%TD*%
%TO.P,J2,1*%
%TO.N,Net-(J10-Pad2)*%
X142875000Y-105410000D03*
%TD*%
%TO.P,J3,1*%
%TO.N,Net-(J10-Pad3)*%
X142875000Y-104140000D03*
%TD*%
%TO.P,J4,1*%
%TO.N,Net-(J10-Pad4)*%
X142875000Y-102870000D03*
%TD*%
%TO.P,J5,1*%
%TO.N,Net-(J10-Pad5)*%
X142875000Y-101600000D03*
%TD*%
%TO.P,J6,1*%
%TO.N,Net-(J10-Pad6)*%
X142875000Y-100330000D03*
%TD*%
%TO.P,J8,1*%
%TO.N,Net-(J10-Pad8)*%
X142875000Y-97790000D03*
%TD*%
D13*
X161900001Y-111735000D02*
X154623072Y-111735000D01*
X154623072Y-110275000D01*
X154610812Y-110150518D01*
X154574502Y-110030820D01*
X154515537Y-109920506D01*
X154436185Y-109823815D01*
X154339494Y-109744463D01*
X154229180Y-109685498D01*
X154156620Y-109663487D01*
X154288475Y-109531632D01*
X154450990Y-109288411D01*
X154562932Y-109018158D01*
X154620000Y-108731260D01*
X154620000Y-108438740D01*
X154562932Y-108151842D01*
X154450990Y-107881589D01*
X154288475Y-107638368D01*
X154081632Y-107431525D01*
X153907240Y-107315000D01*
X154081632Y-107198475D01*
X154288475Y-106991632D01*
X154450990Y-106748411D01*
X154562932Y-106478158D01*
X154620000Y-106191260D01*
X154620000Y-105898740D01*
X154562932Y-105611842D01*
X154450990Y-105341589D01*
X154288475Y-105098368D01*
X154081632Y-104891525D01*
X153907240Y-104775000D01*
X154081632Y-104658475D01*
X154288475Y-104451632D01*
X154450990Y-104208411D01*
X154562932Y-103938158D01*
X154620000Y-103651260D01*
X154620000Y-103358740D01*
X154562932Y-103071842D01*
X154450990Y-102801589D01*
X154288475Y-102558368D01*
X154081632Y-102351525D01*
X153907240Y-102235000D01*
X154081632Y-102118475D01*
X154288475Y-101911632D01*
X154450990Y-101668411D01*
X154562932Y-101398158D01*
X154620000Y-101111260D01*
X154620000Y-100818740D01*
X154562932Y-100531842D01*
X154450990Y-100261589D01*
X154288475Y-100018368D01*
X154081632Y-99811525D01*
X153907240Y-99695000D01*
X154081632Y-99578475D01*
X154288475Y-99371632D01*
X154450990Y-99128411D01*
X154562932Y-98858158D01*
X154620000Y-98571260D01*
X154620000Y-98278740D01*
X154562932Y-97991842D01*
X154450990Y-97721589D01*
X154288475Y-97478368D01*
X154081632Y-97271525D01*
X153907240Y-97155000D01*
X154081632Y-97038475D01*
X154288475Y-96831632D01*
X154450990Y-96588411D01*
X154562932Y-96318158D01*
X154620000Y-96031260D01*
X154620000Y-95738740D01*
X154562932Y-95451842D01*
X154450990Y-95181589D01*
X154288475Y-94938368D01*
X154081632Y-94731525D01*
X153907240Y-94615000D01*
X154081632Y-94498475D01*
X154288475Y-94291632D01*
X154450990Y-94048411D01*
X154562932Y-93778158D01*
X154620000Y-93491260D01*
X154620000Y-93198740D01*
X154562932Y-92911842D01*
X154489682Y-92735000D01*
X161900000Y-92735000D01*
X161900001Y-111735000D01*
%TA.AperFunction,NonConductor*%
D14*
G36*
X161900001Y-111735000D02*
G01*
X154623072Y-111735000D01*
X154623072Y-110275000D01*
X154610812Y-110150518D01*
X154574502Y-110030820D01*
X154515537Y-109920506D01*
X154436185Y-109823815D01*
X154339494Y-109744463D01*
X154229180Y-109685498D01*
X154156620Y-109663487D01*
X154288475Y-109531632D01*
X154450990Y-109288411D01*
X154562932Y-109018158D01*
X154620000Y-108731260D01*
X154620000Y-108438740D01*
X154562932Y-108151842D01*
X154450990Y-107881589D01*
X154288475Y-107638368D01*
X154081632Y-107431525D01*
X153907240Y-107315000D01*
X154081632Y-107198475D01*
X154288475Y-106991632D01*
X154450990Y-106748411D01*
X154562932Y-106478158D01*
X154620000Y-106191260D01*
X154620000Y-105898740D01*
X154562932Y-105611842D01*
X154450990Y-105341589D01*
X154288475Y-105098368D01*
X154081632Y-104891525D01*
X153907240Y-104775000D01*
X154081632Y-104658475D01*
X154288475Y-104451632D01*
X154450990Y-104208411D01*
X154562932Y-103938158D01*
X154620000Y-103651260D01*
X154620000Y-103358740D01*
X154562932Y-103071842D01*
X154450990Y-102801589D01*
X154288475Y-102558368D01*
X154081632Y-102351525D01*
X153907240Y-102235000D01*
X154081632Y-102118475D01*
X154288475Y-101911632D01*
X154450990Y-101668411D01*
X154562932Y-101398158D01*
X154620000Y-101111260D01*
X154620000Y-100818740D01*
X154562932Y-100531842D01*
X154450990Y-100261589D01*
X154288475Y-100018368D01*
X154081632Y-99811525D01*
X153907240Y-99695000D01*
X154081632Y-99578475D01*
X154288475Y-99371632D01*
X154450990Y-99128411D01*
X154562932Y-98858158D01*
X154620000Y-98571260D01*
X154620000Y-98278740D01*
X154562932Y-97991842D01*
X154450990Y-97721589D01*
X154288475Y-97478368D01*
X154081632Y-97271525D01*
X153907240Y-97155000D01*
X154081632Y-97038475D01*
X154288475Y-96831632D01*
X154450990Y-96588411D01*
X154562932Y-96318158D01*
X154620000Y-96031260D01*
X154620000Y-95738740D01*
X154562932Y-95451842D01*
X154450990Y-95181589D01*
X154288475Y-94938368D01*
X154081632Y-94731525D01*
X153907240Y-94615000D01*
X154081632Y-94498475D01*
X154288475Y-94291632D01*
X154450990Y-94048411D01*
X154562932Y-93778158D01*
X154620000Y-93491260D01*
X154620000Y-93198740D01*
X154562932Y-92911842D01*
X154489682Y-92735000D01*
X161900000Y-92735000D01*
X161900001Y-111735000D01*
G37*
%TD.AperFunction*%
D13*
X151707068Y-92911842D02*
X151650000Y-93198740D01*
X151650000Y-93491260D01*
X151707068Y-93778158D01*
X151819010Y-94048411D01*
X151981525Y-94291632D01*
X152188368Y-94498475D01*
X152362760Y-94615000D01*
X152188368Y-94731525D01*
X151981525Y-94938368D01*
X151819010Y-95181589D01*
X151707068Y-95451842D01*
X151650000Y-95738740D01*
X151650000Y-96031260D01*
X151707068Y-96318158D01*
X151819010Y-96588411D01*
X151981525Y-96831632D01*
X152188368Y-97038475D01*
X152362760Y-97155000D01*
X152188368Y-97271525D01*
X151981525Y-97478368D01*
X151819010Y-97721589D01*
X151707068Y-97991842D01*
X151650000Y-98278740D01*
X151650000Y-98571260D01*
X151707068Y-98858158D01*
X151819010Y-99128411D01*
X151981525Y-99371632D01*
X152188368Y-99578475D01*
X152362760Y-99695000D01*
X152188368Y-99811525D01*
X151981525Y-100018368D01*
X151819010Y-100261589D01*
X151707068Y-100531842D01*
X151650000Y-100818740D01*
X151650000Y-101111260D01*
X151707068Y-101398158D01*
X151819010Y-101668411D01*
X151981525Y-101911632D01*
X152188368Y-102118475D01*
X152362760Y-102235000D01*
X152188368Y-102351525D01*
X151981525Y-102558368D01*
X151819010Y-102801589D01*
X151707068Y-103071842D01*
X151650000Y-103358740D01*
X151650000Y-103651260D01*
X151707068Y-103938158D01*
X151819010Y-104208411D01*
X151981525Y-104451632D01*
X152188368Y-104658475D01*
X152362760Y-104775000D01*
X152188368Y-104891525D01*
X151981525Y-105098368D01*
X151819010Y-105341589D01*
X151707068Y-105611842D01*
X151650000Y-105898740D01*
X151650000Y-106191260D01*
X151707068Y-106478158D01*
X151819010Y-106748411D01*
X151981525Y-106991632D01*
X152188368Y-107198475D01*
X152362760Y-107315000D01*
X152188368Y-107431525D01*
X151981525Y-107638368D01*
X151819010Y-107881589D01*
X151707068Y-108151842D01*
X151650000Y-108438740D01*
X151650000Y-108731260D01*
X151707068Y-109018158D01*
X151819010Y-109288411D01*
X151981525Y-109531632D01*
X152113380Y-109663487D01*
X152040820Y-109685498D01*
X151930506Y-109744463D01*
X151833815Y-109823815D01*
X151754463Y-109920506D01*
X151695498Y-110030820D01*
X151659188Y-110150518D01*
X151646928Y-110275000D01*
X151646928Y-111735000D01*
X147987279Y-111735000D01*
X147590455Y-111696091D01*
X147239794Y-111590220D01*
X146916377Y-111418257D01*
X146605801Y-111164959D01*
X145085348Y-109684117D01*
X146220000Y-109684117D01*
X146220000Y-110025883D01*
X146286675Y-110361081D01*
X146417463Y-110676831D01*
X146607337Y-110960998D01*
X146849002Y-111202663D01*
X147133169Y-111392537D01*
X147448919Y-111523325D01*
X147784117Y-111590000D01*
X148125883Y-111590000D01*
X148461081Y-111523325D01*
X148776831Y-111392537D01*
X149060998Y-111202663D01*
X149302663Y-110960998D01*
X149492537Y-110676831D01*
X149623325Y-110361081D01*
X149690000Y-110025883D01*
X149690000Y-109684117D01*
X149623325Y-109348919D01*
X149492537Y-109033169D01*
X149302663Y-108749002D01*
X149060998Y-108507337D01*
X148776831Y-108317463D01*
X148461081Y-108186675D01*
X148125883Y-108120000D01*
X147784117Y-108120000D01*
X147448919Y-108186675D01*
X147133169Y-108317463D01*
X146849002Y-108507337D01*
X146607337Y-108749002D01*
X146417463Y-109033169D01*
X146286675Y-109348919D01*
X146220000Y-109684117D01*
X145085348Y-109684117D01*
X143114895Y-107765000D01*
X143378294Y-107765000D01*
X143537697Y-107749300D01*
X143742220Y-107687259D01*
X143930710Y-107586509D01*
X144095922Y-107450922D01*
X144231509Y-107285710D01*
X144332259Y-107097220D01*
X144394300Y-106892697D01*
X144415249Y-106680000D01*
X144394300Y-106467303D01*
X144332259Y-106262780D01*
X144231509Y-106074290D01*
X144207471Y-106045000D01*
X144231509Y-106015710D01*
X144332259Y-105827220D01*
X144394300Y-105622697D01*
X144415249Y-105410000D01*
X144394300Y-105197303D01*
X144332259Y-104992780D01*
X144231509Y-104804290D01*
X144207471Y-104775000D01*
X144231509Y-104745710D01*
X144332259Y-104557220D01*
X144394300Y-104352697D01*
X144415249Y-104140000D01*
X144394300Y-103927303D01*
X144332259Y-103722780D01*
X144231509Y-103534290D01*
X144207471Y-103505000D01*
X144231509Y-103475710D01*
X144332259Y-103287220D01*
X144394300Y-103082697D01*
X144415249Y-102870000D01*
X144394300Y-102657303D01*
X144332259Y-102452780D01*
X144231509Y-102264290D01*
X144207471Y-102235000D01*
X144231509Y-102205710D01*
X144332259Y-102017220D01*
X144394300Y-101812697D01*
X144415249Y-101600000D01*
X144394300Y-101387303D01*
X144332259Y-101182780D01*
X144231509Y-100994290D01*
X144207471Y-100965000D01*
X144231509Y-100935710D01*
X144332259Y-100747220D01*
X144394300Y-100542697D01*
X144415249Y-100330000D01*
X144394300Y-100117303D01*
X144332259Y-99912780D01*
X144231509Y-99724290D01*
X144207471Y-99695000D01*
X144231509Y-99665710D01*
X144332259Y-99477220D01*
X144394300Y-99272697D01*
X144415249Y-99060000D01*
X144394300Y-98847303D01*
X144332259Y-98642780D01*
X144231509Y-98454290D01*
X144207471Y-98425000D01*
X144231509Y-98395710D01*
X144332259Y-98207220D01*
X144394300Y-98002697D01*
X144415249Y-97790000D01*
X144394300Y-97577303D01*
X144332259Y-97372780D01*
X144231509Y-97184290D01*
X144095922Y-97019078D01*
X143930710Y-96883491D01*
X143742220Y-96782741D01*
X143537697Y-96720700D01*
X143378294Y-96705000D01*
X143114895Y-96705000D01*
X145436255Y-94444117D01*
X146220000Y-94444117D01*
X146220000Y-94785883D01*
X146286675Y-95121081D01*
X146417463Y-95436831D01*
X146607337Y-95720998D01*
X146849002Y-95962663D01*
X147133169Y-96152537D01*
X147448919Y-96283325D01*
X147784117Y-96350000D01*
X148125883Y-96350000D01*
X148461081Y-96283325D01*
X148776831Y-96152537D01*
X149060998Y-95962663D01*
X149302663Y-95720998D01*
X149492537Y-95436831D01*
X149623325Y-95121081D01*
X149690000Y-94785883D01*
X149690000Y-94444117D01*
X149623325Y-94108919D01*
X149492537Y-93793169D01*
X149302663Y-93509002D01*
X149060998Y-93267337D01*
X148776831Y-93077463D01*
X148461081Y-92946675D01*
X148125883Y-92880000D01*
X147784117Y-92880000D01*
X147448919Y-92946675D01*
X147133169Y-93077463D01*
X146849002Y-93267337D01*
X146607337Y-93509002D01*
X146417463Y-93793169D01*
X146286675Y-94108919D01*
X146220000Y-94444117D01*
X145436255Y-94444117D01*
X146599446Y-93311231D01*
X146910924Y-93055380D01*
X147233743Y-92882286D01*
X147584032Y-92775193D01*
X147979724Y-92735000D01*
X151780318Y-92735000D01*
X151707068Y-92911842D01*
%TA.AperFunction,NonConductor*%
D14*
G36*
X151707068Y-92911842D02*
G01*
X151650000Y-93198740D01*
X151650000Y-93491260D01*
X151707068Y-93778158D01*
X151819010Y-94048411D01*
X151981525Y-94291632D01*
X152188368Y-94498475D01*
X152362760Y-94615000D01*
X152188368Y-94731525D01*
X151981525Y-94938368D01*
X151819010Y-95181589D01*
X151707068Y-95451842D01*
X151650000Y-95738740D01*
X151650000Y-96031260D01*
X151707068Y-96318158D01*
X151819010Y-96588411D01*
X151981525Y-96831632D01*
X152188368Y-97038475D01*
X152362760Y-97155000D01*
X152188368Y-97271525D01*
X151981525Y-97478368D01*
X151819010Y-97721589D01*
X151707068Y-97991842D01*
X151650000Y-98278740D01*
X151650000Y-98571260D01*
X151707068Y-98858158D01*
X151819010Y-99128411D01*
X151981525Y-99371632D01*
X152188368Y-99578475D01*
X152362760Y-99695000D01*
X152188368Y-99811525D01*
X151981525Y-100018368D01*
X151819010Y-100261589D01*
X151707068Y-100531842D01*
X151650000Y-100818740D01*
X151650000Y-101111260D01*
X151707068Y-101398158D01*
X151819010Y-101668411D01*
X151981525Y-101911632D01*
X152188368Y-102118475D01*
X152362760Y-102235000D01*
X152188368Y-102351525D01*
X151981525Y-102558368D01*
X151819010Y-102801589D01*
X151707068Y-103071842D01*
X151650000Y-103358740D01*
X151650000Y-103651260D01*
X151707068Y-103938158D01*
X151819010Y-104208411D01*
X151981525Y-104451632D01*
X152188368Y-104658475D01*
X152362760Y-104775000D01*
X152188368Y-104891525D01*
X151981525Y-105098368D01*
X151819010Y-105341589D01*
X151707068Y-105611842D01*
X151650000Y-105898740D01*
X151650000Y-106191260D01*
X151707068Y-106478158D01*
X151819010Y-106748411D01*
X151981525Y-106991632D01*
X152188368Y-107198475D01*
X152362760Y-107315000D01*
X152188368Y-107431525D01*
X151981525Y-107638368D01*
X151819010Y-107881589D01*
X151707068Y-108151842D01*
X151650000Y-108438740D01*
X151650000Y-108731260D01*
X151707068Y-109018158D01*
X151819010Y-109288411D01*
X151981525Y-109531632D01*
X152113380Y-109663487D01*
X152040820Y-109685498D01*
X151930506Y-109744463D01*
X151833815Y-109823815D01*
X151754463Y-109920506D01*
X151695498Y-110030820D01*
X151659188Y-110150518D01*
X151646928Y-110275000D01*
X151646928Y-111735000D01*
X147987279Y-111735000D01*
X147590455Y-111696091D01*
X147239794Y-111590220D01*
X146916377Y-111418257D01*
X146605801Y-111164959D01*
X145085348Y-109684117D01*
X146220000Y-109684117D01*
X146220000Y-110025883D01*
X146286675Y-110361081D01*
X146417463Y-110676831D01*
X146607337Y-110960998D01*
X146849002Y-111202663D01*
X147133169Y-111392537D01*
X147448919Y-111523325D01*
X147784117Y-111590000D01*
X148125883Y-111590000D01*
X148461081Y-111523325D01*
X148776831Y-111392537D01*
X149060998Y-111202663D01*
X149302663Y-110960998D01*
X149492537Y-110676831D01*
X149623325Y-110361081D01*
X149690000Y-110025883D01*
X149690000Y-109684117D01*
X149623325Y-109348919D01*
X149492537Y-109033169D01*
X149302663Y-108749002D01*
X149060998Y-108507337D01*
X148776831Y-108317463D01*
X148461081Y-108186675D01*
X148125883Y-108120000D01*
X147784117Y-108120000D01*
X147448919Y-108186675D01*
X147133169Y-108317463D01*
X146849002Y-108507337D01*
X146607337Y-108749002D01*
X146417463Y-109033169D01*
X146286675Y-109348919D01*
X146220000Y-109684117D01*
X145085348Y-109684117D01*
X143114895Y-107765000D01*
X143378294Y-107765000D01*
X143537697Y-107749300D01*
X143742220Y-107687259D01*
X143930710Y-107586509D01*
X144095922Y-107450922D01*
X144231509Y-107285710D01*
X144332259Y-107097220D01*
X144394300Y-106892697D01*
X144415249Y-106680000D01*
X144394300Y-106467303D01*
X144332259Y-106262780D01*
X144231509Y-106074290D01*
X144207471Y-106045000D01*
X144231509Y-106015710D01*
X144332259Y-105827220D01*
X144394300Y-105622697D01*
X144415249Y-105410000D01*
X144394300Y-105197303D01*
X144332259Y-104992780D01*
X144231509Y-104804290D01*
X144207471Y-104775000D01*
X144231509Y-104745710D01*
X144332259Y-104557220D01*
X144394300Y-104352697D01*
X144415249Y-104140000D01*
X144394300Y-103927303D01*
X144332259Y-103722780D01*
X144231509Y-103534290D01*
X144207471Y-103505000D01*
X144231509Y-103475710D01*
X144332259Y-103287220D01*
X144394300Y-103082697D01*
X144415249Y-102870000D01*
X144394300Y-102657303D01*
X144332259Y-102452780D01*
X144231509Y-102264290D01*
X144207471Y-102235000D01*
X144231509Y-102205710D01*
X144332259Y-102017220D01*
X144394300Y-101812697D01*
X144415249Y-101600000D01*
X144394300Y-101387303D01*
X144332259Y-101182780D01*
X144231509Y-100994290D01*
X144207471Y-100965000D01*
X144231509Y-100935710D01*
X144332259Y-100747220D01*
X144394300Y-100542697D01*
X144415249Y-100330000D01*
X144394300Y-100117303D01*
X144332259Y-99912780D01*
X144231509Y-99724290D01*
X144207471Y-99695000D01*
X144231509Y-99665710D01*
X144332259Y-99477220D01*
X144394300Y-99272697D01*
X144415249Y-99060000D01*
X144394300Y-98847303D01*
X144332259Y-98642780D01*
X144231509Y-98454290D01*
X144207471Y-98425000D01*
X144231509Y-98395710D01*
X144332259Y-98207220D01*
X144394300Y-98002697D01*
X144415249Y-97790000D01*
X144394300Y-97577303D01*
X144332259Y-97372780D01*
X144231509Y-97184290D01*
X144095922Y-97019078D01*
X143930710Y-96883491D01*
X143742220Y-96782741D01*
X143537697Y-96720700D01*
X143378294Y-96705000D01*
X143114895Y-96705000D01*
X145436255Y-94444117D01*
X146220000Y-94444117D01*
X146220000Y-94785883D01*
X146286675Y-95121081D01*
X146417463Y-95436831D01*
X146607337Y-95720998D01*
X146849002Y-95962663D01*
X147133169Y-96152537D01*
X147448919Y-96283325D01*
X147784117Y-96350000D01*
X148125883Y-96350000D01*
X148461081Y-96283325D01*
X148776831Y-96152537D01*
X149060998Y-95962663D01*
X149302663Y-95720998D01*
X149492537Y-95436831D01*
X149623325Y-95121081D01*
X149690000Y-94785883D01*
X149690000Y-94444117D01*
X149623325Y-94108919D01*
X149492537Y-93793169D01*
X149302663Y-93509002D01*
X149060998Y-93267337D01*
X148776831Y-93077463D01*
X148461081Y-92946675D01*
X148125883Y-92880000D01*
X147784117Y-92880000D01*
X147448919Y-92946675D01*
X147133169Y-93077463D01*
X146849002Y-93267337D01*
X146607337Y-93509002D01*
X146417463Y-93793169D01*
X146286675Y-94108919D01*
X146220000Y-94444117D01*
X145436255Y-94444117D01*
X146599446Y-93311231D01*
X146910924Y-93055380D01*
X147233743Y-92882286D01*
X147584032Y-92775193D01*
X147979724Y-92735000D01*
X151780318Y-92735000D01*
X151707068Y-92911842D01*
G37*
%TD.AperFunction*%
M02*
