%TF.GenerationSoftware,KiCad,Pcbnew,(5.1.9-0-10_14)*%
%TF.CreationDate,2021-03-17T23:59:50+01:00*%
%TF.ProjectId,PogoDebug,506f676f-4465-4627-9567-2e6b69636164,rev?*%
%TF.SameCoordinates,Original*%
%TF.FileFunction,Legend,Top*%
%TF.FilePolarity,Positive*%
%FSLAX46Y46*%
G04 Gerber Fmt 4.6, Leading zero omitted, Abs format (unit mm)*
G04 Created by KiCad (PCBNEW (5.1.9-0-10_14)) date 2021-03-17 23:59:50*
%MOMM*%
%LPD*%
G01*
G04 APERTURE LIST*
%ADD10C,0.120000*%
G04 APERTURE END LIST*
D10*
%TO.C,J10*%
X163225000Y-112335000D02*
X154595000Y-112335000D01*
X163225000Y-112216905D02*
X154595000Y-112216905D01*
X163225000Y-112098810D02*
X154595000Y-112098810D01*
X163225000Y-111980715D02*
X154595000Y-111980715D01*
X163225000Y-111862620D02*
X154595000Y-111862620D01*
X163225000Y-111744525D02*
X154595000Y-111744525D01*
X163225000Y-111626430D02*
X154595000Y-111626430D01*
X163225000Y-111508335D02*
X154595000Y-111508335D01*
X163225000Y-111390240D02*
X154595000Y-111390240D01*
X163225000Y-111272145D02*
X154595000Y-111272145D01*
X163225000Y-111154050D02*
X154595000Y-111154050D01*
X163225000Y-111035955D02*
X154595000Y-111035955D01*
X163225000Y-110917860D02*
X154595000Y-110917860D01*
X163225000Y-110799765D02*
X154595000Y-110799765D01*
X163225000Y-110681670D02*
X154595000Y-110681670D01*
X163225000Y-110563575D02*
X154595000Y-110563575D01*
X163225000Y-110445480D02*
X154595000Y-110445480D01*
X163225000Y-110327385D02*
X154595000Y-110327385D01*
X163225000Y-110209290D02*
X154595000Y-110209290D01*
X163225000Y-110091195D02*
X154595000Y-110091195D01*
X163225000Y-109973100D02*
X154595000Y-109973100D01*
X154595000Y-111485000D02*
X154245000Y-111485000D01*
X154595000Y-110765000D02*
X154245000Y-110765000D01*
X154595000Y-108945000D02*
X154185000Y-108945000D01*
X154595000Y-108225000D02*
X154185000Y-108225000D01*
X154595000Y-106405000D02*
X154185000Y-106405000D01*
X154595000Y-105685000D02*
X154185000Y-105685000D01*
X154595000Y-103865000D02*
X154185000Y-103865000D01*
X154595000Y-103145000D02*
X154185000Y-103145000D01*
X154595000Y-101325000D02*
X154185000Y-101325000D01*
X154595000Y-100605000D02*
X154185000Y-100605000D01*
X154595000Y-98785000D02*
X154185000Y-98785000D01*
X154595000Y-98065000D02*
X154185000Y-98065000D01*
X154595000Y-96245000D02*
X154185000Y-96245000D01*
X154595000Y-95525000D02*
X154185000Y-95525000D01*
X154595000Y-93705000D02*
X154185000Y-93705000D01*
X154595000Y-92985000D02*
X154185000Y-92985000D01*
X163225000Y-109855000D02*
X154595000Y-109855000D01*
X163225000Y-107315000D02*
X154595000Y-107315000D01*
X163225000Y-104775000D02*
X154595000Y-104775000D01*
X163225000Y-102235000D02*
X154595000Y-102235000D01*
X163225000Y-99695000D02*
X154595000Y-99695000D01*
X163225000Y-97155000D02*
X154595000Y-97155000D01*
X163225000Y-94615000D02*
X154595000Y-94615000D01*
X163225000Y-112455000D02*
X154595000Y-112455000D01*
X154595000Y-112455000D02*
X154595000Y-92015000D01*
X163225000Y-92015000D02*
X154595000Y-92015000D01*
X163225000Y-112455000D02*
X163225000Y-92015000D01*
X152025000Y-112455000D02*
X152025000Y-111125000D01*
X153135000Y-112455000D02*
X152025000Y-112455000D01*
%TD*%
M02*
