%TF.GenerationSoftware,KiCad,Pcbnew,(5.1.9-0-10_14)*%
%TF.CreationDate,2021-03-17T23:59:50+01:00*%
%TF.ProjectId,PogoDebug,506f676f-4465-4627-9567-2e6b69636164,rev?*%
%TF.SameCoordinates,Original*%
%TF.FileFunction,Copper,L1,Top*%
%TF.FilePolarity,Positive*%
%FSLAX46Y46*%
G04 Gerber Fmt 4.6, Leading zero omitted, Abs format (unit mm)*
G04 Created by KiCad (PCBNEW (5.1.9-0-10_14)) date 2021-03-17 23:59:50*
%MOMM*%
%LPD*%
G01*
G04 APERTURE LIST*
%TA.AperFunction,ComponentPad*%
%ADD10O,1.700000X1.700000*%
%TD*%
%TA.AperFunction,ComponentPad*%
%ADD11R,1.700000X1.700000*%
%TD*%
%TA.AperFunction,ComponentPad*%
%ADD12O,1.800000X0.900000*%
%TD*%
%TA.AperFunction,Conductor*%
%ADD13C,0.500000*%
%TD*%
G04 APERTURE END LIST*
D10*
%TO.P,J10,8*%
%TO.N,Net-(J10-Pad8)*%
X153135000Y-93345000D03*
%TO.P,J10,7*%
%TO.N,Net-(J10-Pad7)*%
X153135000Y-95885000D03*
%TO.P,J10,6*%
%TO.N,Net-(J10-Pad6)*%
X153135000Y-98425000D03*
%TO.P,J10,5*%
%TO.N,Net-(J10-Pad5)*%
X153135000Y-100965000D03*
%TO.P,J10,4*%
%TO.N,Net-(J10-Pad4)*%
X153135000Y-103505000D03*
%TO.P,J10,3*%
%TO.N,Net-(J10-Pad3)*%
X153135000Y-106045000D03*
%TO.P,J10,2*%
%TO.N,Net-(J10-Pad2)*%
X153135000Y-108585000D03*
D11*
%TO.P,J10,1*%
%TO.N,Net-(J1-Pad1)*%
X153135000Y-111125000D03*
%TD*%
D12*
%TO.P,J7,1*%
%TO.N,Net-(J10-Pad7)*%
X142875000Y-99060000D03*
%TD*%
%TO.P,J1,1*%
%TO.N,Net-(J1-Pad1)*%
X142875000Y-106680000D03*
%TD*%
%TO.P,J2,1*%
%TO.N,Net-(J10-Pad2)*%
X142875000Y-105410000D03*
%TD*%
%TO.P,J3,1*%
%TO.N,Net-(J10-Pad3)*%
X142875000Y-104140000D03*
%TD*%
%TO.P,J4,1*%
%TO.N,Net-(J10-Pad4)*%
X142875000Y-102870000D03*
%TD*%
%TO.P,J5,1*%
%TO.N,Net-(J10-Pad5)*%
X142875000Y-101600000D03*
%TD*%
%TO.P,J6,1*%
%TO.N,Net-(J10-Pad6)*%
X142875000Y-100330000D03*
%TD*%
%TO.P,J8,1*%
%TO.N,Net-(J10-Pad8)*%
X142875000Y-97790000D03*
%TD*%
D13*
%TO.N,Net-(J1-Pad1)*%
X148690000Y-106680000D02*
X153135000Y-111125000D01*
X142875000Y-106680000D02*
X148690000Y-106680000D01*
%TO.N,Net-(J10-Pad2)*%
X153135000Y-108555000D02*
X153135000Y-108585000D01*
X149990000Y-105410000D02*
X153135000Y-108555000D01*
X142875000Y-105410000D02*
X149990000Y-105410000D01*
%TO.N,Net-(J10-Pad3)*%
X151230000Y-104140000D02*
X153135000Y-106045000D01*
X142875000Y-104140000D02*
X151230000Y-104140000D01*
%TO.N,Net-(J10-Pad4)*%
X152500000Y-102870000D02*
X153135000Y-103505000D01*
X142875000Y-102870000D02*
X152500000Y-102870000D01*
%TO.N,Net-(J10-Pad5)*%
X152500000Y-101600000D02*
X153135000Y-100965000D01*
X142875000Y-101600000D02*
X152500000Y-101600000D01*
%TO.N,Net-(J10-Pad6)*%
X151230000Y-100330000D02*
X153135000Y-98425000D01*
X142875000Y-100330000D02*
X151230000Y-100330000D01*
%TO.N,Net-(J10-Pad7)*%
X149960000Y-99060000D02*
X153135000Y-95885000D01*
X142875000Y-99060000D02*
X149960000Y-99060000D01*
%TO.N,Net-(J10-Pad8)*%
X148690000Y-97790000D02*
X153135000Y-93345000D01*
X142875000Y-97790000D02*
X148690000Y-97790000D01*
%TD*%
M02*
