%TF.GenerationSoftware,KiCad,Pcbnew,(5.1.9-0-10_14)*%
%TF.CreationDate,2021-03-17T23:59:50+01:00*%
%TF.ProjectId,PogoDebug,506f676f-4465-4627-9567-2e6b69636164,rev?*%
%TF.SameCoordinates,Original*%
%TF.FileFunction,Soldermask,Bot*%
%TF.FilePolarity,Negative*%
%FSLAX46Y46*%
G04 Gerber Fmt 4.6, Leading zero omitted, Abs format (unit mm)*
G04 Created by KiCad (PCBNEW (5.1.9-0-10_14)) date 2021-03-17 23:59:50*
%MOMM*%
%LPD*%
G01*
G04 APERTURE LIST*
%ADD10C,0.010000*%
%ADD11O,1.700000X1.700000*%
%ADD12R,1.700000X1.700000*%
%ADD13C,2.200000*%
%ADD14O,1.800000X0.900000*%
G04 APERTURE END LIST*
D10*
%TO.C,G\u002A\u002A\u002A*%
G36*
X146365808Y-106171890D02*
G01*
X146582828Y-105985715D01*
X146729476Y-105737516D01*
X146782768Y-105453775D01*
X146719718Y-105160976D01*
X146546455Y-104913545D01*
X146268591Y-104742896D01*
X145933135Y-104687085D01*
X145612838Y-104755861D01*
X145563165Y-104781783D01*
X145364940Y-104979661D01*
X145230972Y-105265661D01*
X145194600Y-105561417D01*
X145204188Y-105625557D01*
X145304680Y-105841345D01*
X145483238Y-106058376D01*
X145522374Y-106093448D01*
X145812596Y-106252239D01*
X146101403Y-106269559D01*
X146365808Y-106171890D01*
G37*
X146365808Y-106171890D02*
X146582828Y-105985715D01*
X146729476Y-105737516D01*
X146782768Y-105453775D01*
X146719718Y-105160976D01*
X146546455Y-104913545D01*
X146268591Y-104742896D01*
X145933135Y-104687085D01*
X145612838Y-104755861D01*
X145563165Y-104781783D01*
X145364940Y-104979661D01*
X145230972Y-105265661D01*
X145194600Y-105561417D01*
X145204188Y-105625557D01*
X145304680Y-105841345D01*
X145483238Y-106058376D01*
X145522374Y-106093448D01*
X145812596Y-106252239D01*
X146101403Y-106269559D01*
X146365808Y-106171890D01*
%TD*%
D11*
%TO.C,J10*%
X153135000Y-93345000D03*
X153135000Y-95885000D03*
X153135000Y-98425000D03*
X153135000Y-100965000D03*
X153135000Y-103505000D03*
X153135000Y-106045000D03*
X153135000Y-108585000D03*
D12*
X153135000Y-111125000D03*
%TD*%
D13*
%TO.C,H2*%
X147955000Y-94615000D03*
%TD*%
%TO.C,H1*%
X147955000Y-109855000D03*
%TD*%
D14*
%TO.C,J7*%
X142875000Y-99060000D03*
%TD*%
%TO.C,J1*%
X142875000Y-106680000D03*
%TD*%
%TO.C,J2*%
X142875000Y-105410000D03*
%TD*%
%TO.C,J3*%
X142875000Y-104140000D03*
%TD*%
%TO.C,J4*%
X142875000Y-102870000D03*
%TD*%
%TO.C,J5*%
X142875000Y-101600000D03*
%TD*%
%TO.C,J6*%
X142875000Y-100330000D03*
%TD*%
%TO.C,J8*%
X142875000Y-97790000D03*
%TD*%
M02*
